<mxfile host="app.diagrams.net" modified="2023-02-07T20:07:38.419Z" agent="5.0 (X11)" etag="3g0bp2wI_iSTrj7IFIhk" version="20.8.17" type="github">
  <diagram name="PÃ¡gina-1" id="WAZWpWRPfN55p5NfxnQj">
    <mxGraphModel dx="2183" dy="1089" grid="1" gridSize="10" guides="1" tooltips="1" connect="1" arrows="1" fold="1" page="1" pageScale="1" pageWidth="827" pageHeight="1169" math="0" shadow="0">
      <root>
        <mxCell id="0" />
        <mxCell id="1" parent="0" />
        <mxCell id="bI_a_y7-kadtaxP8rwhh-1" value="VPC" style="points=[[0,0],[0.25,0],[0.5,0],[0.75,0],[1,0],[1,0.25],[1,0.5],[1,0.75],[1,1],[0.75,1],[0.5,1],[0.25,1],[0,1],[0,0.75],[0,0.5],[0,0.25]];outlineConnect=0;gradientColor=none;html=1;whiteSpace=wrap;fontSize=12;fontStyle=0;container=1;pointerEvents=0;collapsible=0;recursiveResize=0;shape=mxgraph.aws4.group;grIcon=mxgraph.aws4.group_vpc;strokeColor=#248814;fillColor=none;verticalAlign=top;align=left;spacingLeft=30;fontColor=#AAB7B8;dashed=0;" vertex="1" parent="1">
          <mxGeometry x="20" y="80" width="710" height="880" as="geometry" />
        </mxCell>
        <mxCell id="bI_a_y7-kadtaxP8rwhh-7" value="Availability Zone B" style="fillColor=none;strokeColor=#147EBA;dashed=1;verticalAlign=top;fontStyle=0;fontColor=#147EBA;" vertex="1" parent="bI_a_y7-kadtaxP8rwhh-1">
          <mxGeometry x="200" y="318" width="480" height="240" as="geometry" />
        </mxCell>
        <mxCell id="bI_a_y7-kadtaxP8rwhh-6" value="Availability Zone A" style="fillColor=none;strokeColor=#147EBA;dashed=1;verticalAlign=top;fontStyle=0;fontColor=#147EBA;" vertex="1" parent="bI_a_y7-kadtaxP8rwhh-1">
          <mxGeometry x="200" y="40" width="480" height="240" as="geometry" />
        </mxCell>
        <mxCell id="bI_a_y7-kadtaxP8rwhh-2" value="&lt;div&gt;Internet Gateway&lt;/div&gt;&lt;div&gt;&lt;br&gt;&lt;/div&gt;" style="sketch=0;outlineConnect=0;fontColor=#232F3E;gradientColor=none;fillColor=#4D27AA;strokeColor=none;dashed=0;verticalLabelPosition=bottom;verticalAlign=top;align=center;html=1;fontSize=12;fontStyle=0;aspect=fixed;pointerEvents=1;shape=mxgraph.aws4.internet_gateway;" vertex="1" parent="bI_a_y7-kadtaxP8rwhh-1">
          <mxGeometry x="80" y="399" width="78" height="78" as="geometry" />
        </mxCell>
        <mxCell id="bI_a_y7-kadtaxP8rwhh-3" value="Private subnet" style="points=[[0,0],[0.25,0],[0.5,0],[0.75,0],[1,0],[1,0.25],[1,0.5],[1,0.75],[1,1],[0.75,1],[0.5,1],[0.25,1],[0,1],[0,0.75],[0,0.5],[0,0.25]];outlineConnect=0;gradientColor=none;html=1;whiteSpace=wrap;fontSize=12;fontStyle=0;container=1;pointerEvents=0;collapsible=0;recursiveResize=0;shape=mxgraph.aws4.group;grIcon=mxgraph.aws4.group_security_group;grStroke=0;strokeColor=#147EBA;fillColor=#E6F2F8;verticalAlign=top;align=left;spacingLeft=30;fontColor=#147EBA;dashed=0;" vertex="1" parent="bI_a_y7-kadtaxP8rwhh-1">
          <mxGeometry x="480" y="80" width="160" height="160" as="geometry" />
        </mxCell>
        <mxCell id="bI_a_y7-kadtaxP8rwhh-4" value="Public subnet" style="points=[[0,0],[0.25,0],[0.5,0],[0.75,0],[1,0],[1,0.25],[1,0.5],[1,0.75],[1,1],[0.75,1],[0.5,1],[0.25,1],[0,1],[0,0.75],[0,0.5],[0,0.25]];outlineConnect=0;gradientColor=none;html=1;whiteSpace=wrap;fontSize=12;fontStyle=0;container=1;pointerEvents=0;collapsible=0;recursiveResize=0;shape=mxgraph.aws4.group;grIcon=mxgraph.aws4.group_security_group;grStroke=0;strokeColor=#248814;fillColor=#E9F3E6;verticalAlign=top;align=left;spacingLeft=30;fontColor=#248814;dashed=0;" vertex="1" parent="bI_a_y7-kadtaxP8rwhh-1">
          <mxGeometry x="240" y="80" width="160" height="160" as="geometry" />
        </mxCell>
        <mxCell id="bI_a_y7-kadtaxP8rwhh-5" value="&lt;div&gt;NAT Gateway&lt;/div&gt;" style="sketch=0;outlineConnect=0;fontColor=#232F3E;gradientColor=none;fillColor=#4D27AA;strokeColor=none;dashed=0;verticalLabelPosition=bottom;verticalAlign=top;align=center;html=1;fontSize=12;fontStyle=0;aspect=fixed;pointerEvents=1;shape=mxgraph.aws4.nat_gateway;" vertex="1" parent="bI_a_y7-kadtaxP8rwhh-4">
          <mxGeometry x="40" y="42" width="78" height="78" as="geometry" />
        </mxCell>
        <mxCell id="bI_a_y7-kadtaxP8rwhh-8" value="Public subnet" style="points=[[0,0],[0.25,0],[0.5,0],[0.75,0],[1,0],[1,0.25],[1,0.5],[1,0.75],[1,1],[0.75,1],[0.5,1],[0.25,1],[0,1],[0,0.75],[0,0.5],[0,0.25]];outlineConnect=0;gradientColor=none;html=1;whiteSpace=wrap;fontSize=12;fontStyle=0;container=1;pointerEvents=0;collapsible=0;recursiveResize=0;shape=mxgraph.aws4.group;grIcon=mxgraph.aws4.group_security_group;grStroke=0;strokeColor=#248814;fillColor=#E9F3E6;verticalAlign=top;align=left;spacingLeft=30;fontColor=#248814;dashed=0;" vertex="1" parent="bI_a_y7-kadtaxP8rwhh-1">
          <mxGeometry x="240" y="358" width="160" height="160" as="geometry" />
        </mxCell>
        <mxCell id="bI_a_y7-kadtaxP8rwhh-9" value="&lt;div&gt;NAT Gateway&lt;/div&gt;" style="sketch=0;outlineConnect=0;fontColor=#232F3E;gradientColor=none;fillColor=#4D27AA;strokeColor=none;dashed=0;verticalLabelPosition=bottom;verticalAlign=top;align=center;html=1;fontSize=12;fontStyle=0;aspect=fixed;pointerEvents=1;shape=mxgraph.aws4.nat_gateway;" vertex="1" parent="bI_a_y7-kadtaxP8rwhh-8">
          <mxGeometry x="40" y="42" width="78" height="78" as="geometry" />
        </mxCell>
        <mxCell id="bI_a_y7-kadtaxP8rwhh-10" value="Private subnet" style="points=[[0,0],[0.25,0],[0.5,0],[0.75,0],[1,0],[1,0.25],[1,0.5],[1,0.75],[1,1],[0.75,1],[0.5,1],[0.25,1],[0,1],[0,0.75],[0,0.5],[0,0.25]];outlineConnect=0;gradientColor=none;html=1;whiteSpace=wrap;fontSize=12;fontStyle=0;container=1;pointerEvents=0;collapsible=0;recursiveResize=0;shape=mxgraph.aws4.group;grIcon=mxgraph.aws4.group_security_group;grStroke=0;strokeColor=#147EBA;fillColor=#E6F2F8;verticalAlign=top;align=left;spacingLeft=30;fontColor=#147EBA;dashed=0;" vertex="1" parent="bI_a_y7-kadtaxP8rwhh-1">
          <mxGeometry x="480" y="360" width="160" height="160" as="geometry" />
        </mxCell>
        <mxCell id="bI_a_y7-kadtaxP8rwhh-11" value="Availability Zone C" style="fillColor=none;strokeColor=#147EBA;dashed=1;verticalAlign=top;fontStyle=0;fontColor=#147EBA;" vertex="1" parent="bI_a_y7-kadtaxP8rwhh-1">
          <mxGeometry x="200" y="600" width="480" height="240" as="geometry" />
        </mxCell>
        <mxCell id="bI_a_y7-kadtaxP8rwhh-12" value="Public subnet" style="points=[[0,0],[0.25,0],[0.5,0],[0.75,0],[1,0],[1,0.25],[1,0.5],[1,0.75],[1,1],[0.75,1],[0.5,1],[0.25,1],[0,1],[0,0.75],[0,0.5],[0,0.25]];outlineConnect=0;gradientColor=none;html=1;whiteSpace=wrap;fontSize=12;fontStyle=0;container=1;pointerEvents=0;collapsible=0;recursiveResize=0;shape=mxgraph.aws4.group;grIcon=mxgraph.aws4.group_security_group;grStroke=0;strokeColor=#248814;fillColor=#E9F3E6;verticalAlign=top;align=left;spacingLeft=30;fontColor=#248814;dashed=0;" vertex="1" parent="bI_a_y7-kadtaxP8rwhh-1">
          <mxGeometry x="240" y="640" width="160" height="160" as="geometry" />
        </mxCell>
        <mxCell id="bI_a_y7-kadtaxP8rwhh-13" value="&lt;div&gt;NAT Gateway&lt;/div&gt;" style="sketch=0;outlineConnect=0;fontColor=#232F3E;gradientColor=none;fillColor=#4D27AA;strokeColor=none;dashed=0;verticalLabelPosition=bottom;verticalAlign=top;align=center;html=1;fontSize=12;fontStyle=0;aspect=fixed;pointerEvents=1;shape=mxgraph.aws4.nat_gateway;" vertex="1" parent="bI_a_y7-kadtaxP8rwhh-12">
          <mxGeometry x="40" y="42" width="78" height="78" as="geometry" />
        </mxCell>
        <mxCell id="bI_a_y7-kadtaxP8rwhh-15" value="Private subnet" style="points=[[0,0],[0.25,0],[0.5,0],[0.75,0],[1,0],[1,0.25],[1,0.5],[1,0.75],[1,1],[0.75,1],[0.5,1],[0.25,1],[0,1],[0,0.75],[0,0.5],[0,0.25]];outlineConnect=0;gradientColor=none;html=1;whiteSpace=wrap;fontSize=12;fontStyle=0;container=1;pointerEvents=0;collapsible=0;recursiveResize=0;shape=mxgraph.aws4.group;grIcon=mxgraph.aws4.group_security_group;grStroke=0;strokeColor=#147EBA;fillColor=#E6F2F8;verticalAlign=top;align=left;spacingLeft=30;fontColor=#147EBA;dashed=0;" vertex="1" parent="bI_a_y7-kadtaxP8rwhh-1">
          <mxGeometry x="480" y="640" width="160" height="160" as="geometry" />
        </mxCell>
        <mxCell id="bI_a_y7-kadtaxP8rwhh-16" value="" style="endArrow=classic;html=1;rounded=0;strokeColor=#ff7800;strokeWidth=3;" edge="1" parent="bI_a_y7-kadtaxP8rwhh-1" source="bI_a_y7-kadtaxP8rwhh-15" target="bI_a_y7-kadtaxP8rwhh-13">
          <mxGeometry width="50" height="50" relative="1" as="geometry">
            <mxPoint x="260" y="570" as="sourcePoint" />
            <mxPoint x="310" y="520" as="targetPoint" />
          </mxGeometry>
        </mxCell>
        <mxCell id="bI_a_y7-kadtaxP8rwhh-17" value="" style="endArrow=classic;html=1;rounded=0;strokeColor=#ff7800;strokeWidth=3;" edge="1" parent="bI_a_y7-kadtaxP8rwhh-1" source="bI_a_y7-kadtaxP8rwhh-10" target="bI_a_y7-kadtaxP8rwhh-9">
          <mxGeometry width="50" height="50" relative="1" as="geometry">
            <mxPoint x="501" y="450.001950207469" as="sourcePoint" />
            <mxPoint x="379" y="450.5081742738589" as="targetPoint" />
          </mxGeometry>
        </mxCell>
        <mxCell id="bI_a_y7-kadtaxP8rwhh-18" value="" style="endArrow=classic;html=1;rounded=0;strokeColor=#ff7800;strokeWidth=3;" edge="1" parent="bI_a_y7-kadtaxP8rwhh-1" source="bI_a_y7-kadtaxP8rwhh-3" target="bI_a_y7-kadtaxP8rwhh-5">
          <mxGeometry width="50" height="50" relative="1" as="geometry">
            <mxPoint x="522" y="200.0019502074689" as="sourcePoint" />
            <mxPoint x="400" y="200.5081742738588" as="targetPoint" />
          </mxGeometry>
        </mxCell>
        <mxCell id="bI_a_y7-kadtaxP8rwhh-19" value="" style="endArrow=classic;html=1;rounded=0;strokeColor=#ff7800;strokeWidth=3;" edge="1" parent="bI_a_y7-kadtaxP8rwhh-1" source="bI_a_y7-kadtaxP8rwhh-13" target="bI_a_y7-kadtaxP8rwhh-2">
          <mxGeometry width="50" height="50" relative="1" as="geometry">
            <mxPoint x="222" y="710.508049792531" as="sourcePoint" />
            <mxPoint x="100" y="710.0018257261411" as="targetPoint" />
            <Array as="points">
              <mxPoint x="120" y="720" />
            </Array>
          </mxGeometry>
        </mxCell>
        <mxCell id="bI_a_y7-kadtaxP8rwhh-20" value="" style="endArrow=classic;html=1;rounded=0;strokeColor=#ff7800;strokeWidth=3;" edge="1" parent="bI_a_y7-kadtaxP8rwhh-1" source="bI_a_y7-kadtaxP8rwhh-9" target="bI_a_y7-kadtaxP8rwhh-2">
          <mxGeometry width="50" height="50" relative="1" as="geometry">
            <mxPoint x="212" y="370.5080497925311" as="sourcePoint" />
            <mxPoint x="90" y="370.0018257261412" as="targetPoint" />
          </mxGeometry>
        </mxCell>
        <mxCell id="bI_a_y7-kadtaxP8rwhh-21" value="" style="endArrow=classic;html=1;rounded=0;strokeColor=#ff7800;strokeWidth=3;" edge="1" parent="bI_a_y7-kadtaxP8rwhh-1" source="bI_a_y7-kadtaxP8rwhh-5" target="bI_a_y7-kadtaxP8rwhh-2">
          <mxGeometry width="50" height="50" relative="1" as="geometry">
            <mxPoint x="192" y="230.67750000000012" as="sourcePoint" />
            <mxPoint x="30" y="230.00249999999994" as="targetPoint" />
            <Array as="points">
              <mxPoint x="120" y="160" />
            </Array>
          </mxGeometry>
        </mxCell>
        <mxCell id="bI_a_y7-kadtaxP8rwhh-22" value="&lt;div&gt;Internet&lt;/div&gt;" style="sketch=0;outlineConnect=0;fontColor=#232F3E;gradientColor=none;fillColor=#232F3D;strokeColor=none;dashed=0;verticalLabelPosition=bottom;verticalAlign=top;align=center;html=1;fontSize=12;fontStyle=0;aspect=fixed;pointerEvents=1;shape=mxgraph.aws4.internet_alt2;" vertex="1" parent="1">
          <mxGeometry x="-90" y="481" width="78" height="78" as="geometry" />
        </mxCell>
        <mxCell id="bI_a_y7-kadtaxP8rwhh-23" value="" style="endArrow=classic;html=1;rounded=0;strokeColor=#ff7800;strokeWidth=3;" edge="1" parent="1" source="bI_a_y7-kadtaxP8rwhh-2" target="bI_a_y7-kadtaxP8rwhh-22">
          <mxGeometry width="50" height="50" relative="1" as="geometry">
            <mxPoint x="100" y="557.605" as="sourcePoint" />
            <mxPoint x="-22" y="556.995" as="targetPoint" />
          </mxGeometry>
        </mxCell>
      </root>
    </mxGraphModel>
  </diagram>
</mxfile>
